<?xml version="1.0" encoding="UTF-8"?>
<svg width="828px" height="280px" viewBox="0 0 828 280" version="1.1" xmlns="http://www.w3.org/2000/svg" xmlns:xlink="http://www.w3.org/1999/xlink">
    <!-- Generator: Sketch 52.6 (67491) - http://www.bohemiancoding.com/sketch -->
    <title>Artboard</title>
    <desc>Created with Sketch.</desc>
    <g id="Artboard" stroke="none" stroke-width="1" fill="none" fill-rule="evenodd">
        <g id="Group-7" transform="translate(9.000000, 11.000000)">
            <path d="M126.607076,94.9445333 L86,21" id="treeEdge" stroke="#808080" stroke-width="3.94370844" fill="#000000"></path>
            <path d="M127,94.9445333 L167.607076,21" id="treeEdge" stroke="#808080" stroke-width="3.94370844" fill="#000000"></path>
            <path d="M289.607076,94.9445333 L249,21" id="treeEdge" stroke="#808080" stroke-width="3.94370844" fill="#000000"></path>
            <path d="M289,94.9445333 L329.607076,21" id="treeEdge" stroke="#808080" stroke-width="3.94370844" fill="#000000"></path>
            <path d="M208.214151,168.944533 L127,95" id="treeEdge" stroke="#808080" stroke-width="3.94370844" fill="#000000"></path>
            <path d="M208,168.944533 L289.214151,95" id="treeEdge" stroke="#808080" stroke-width="3.94370844" fill="#000000"></path>
            <path d="M46.0414419,242.773388 L7,225" id="treeEdge" stroke="#808080" stroke-width="3.94370844" fill="#000000"></path>
            <path d="M46,242.944533 L208.428302,169" id="treeEdge" stroke="#808080" stroke-width="3.94370844" fill="#000000"></path>
            <circle id="treeItem" stroke="#000000" fill="#000000" cx="127.303538" cy="95.3035378" r="20.3035378"></circle>
            <circle id="treeItem" stroke="#000000" fill="#000000" cx="248.303538" cy="21.3035378" r="20.3035378"></circle>
            <circle id="treeItem" stroke="#000000" fill="#000000" cx="330.303538" cy="21.3035378" r="20.3035378"></circle>
            <circle id="treeItem" stroke="#000000" fill="#000000" cx="289.303538" cy="95.3035378" r="20.3035378"></circle>
            <circle id="treeItem" stroke="#000000" fill="#000000" cx="208.303538" cy="169.303538" r="20.3035378"></circle>
            <circle id="treeItem" stroke="#000000" fill="#000000" cx="45.3035378" cy="243.303538" r="20.3035378"></circle>
            <rect id="Rectangle" stroke="#000000" fill="#FFFFFF" x="99" y="48" width="16" height="16" rx="4"></rect>
            <text id="0" fill="#000000" font-family="Helvetica" font-size="12" font-weight="normal">
                <tspan x="103" y="60">0</tspan>
            </text>
            <rect id="Rectangle" stroke="#000000" fill="#FFFFFF" x="139" y="48" width="16" height="16" rx="4"></rect>
            <text id="1" fill="#000000" font-family="Helvetica" font-size="12" font-weight="normal">
                <tspan x="144" y="60">1</tspan>
            </text>
            <rect id="Rectangle" stroke="#000000" fill="#FFFFFF" x="261" y="48" width="16" height="16" rx="4"></rect>
            <text id="0" fill="#000000" font-family="Helvetica" font-size="12" font-weight="normal">
                <tspan x="266" y="60">0</tspan>
            </text>
            <rect id="Rectangle" stroke="#000000" fill="#FFFFFF" x="302" y="48" width="16" height="16" rx="4"></rect>
            <text id="1" fill="#000000" font-family="Helvetica" font-size="12" font-weight="normal">
                <tspan x="306" y="60">1</tspan>
            </text>
            <rect id="Rectangle" stroke="#000000" fill="#FFFFFF" x="159" y="122" width="16" height="16" rx="4"></rect>
            <text id="0" fill="#000000" font-family="Helvetica" font-size="12" font-weight="normal">
                <tspan x="164" y="134">0</tspan>
            </text>
            <rect id="Rectangle" stroke="#000000" fill="#FFFFFF" x="241" y="122" width="16" height="16" rx="4"></rect>
            <text id="1" fill="#000000" font-family="Helvetica" font-size="12" font-weight="normal">
                <tspan x="245" y="134">1</tspan>
            </text>
            <rect id="Rectangle" stroke="#000000" fill="#FFFFFF" x="119" y="196" width="16" height="16" rx="4"></rect>
            <text id="1" fill="#000000" font-family="Helvetica" font-size="12" font-weight="normal">
                <tspan x="123" y="208">1</tspan>
            </text>
            <g id="Group-2" transform="translate(67.000000, 0.000000)">
                <circle id="treeItem" stroke="#000000" stroke-width="4" fill="#FFFFFF" cx="20.5" cy="20.5" r="20.5"></circle>
                <g id="Group-5" transform="translate(9.000000, 9.000000)" fill="#000000">
                    <path d="M0.284777859,15.4973914 C0.362952173,15.9611288 0.66448167,16.4966351 1.18936635,17.1039102 C1.71425103,17.7111854 2.36198106,18.0203437 3.13255645,18.031385 C3.52342802,18.031385 3.88079631,17.9320127 4.20466133,17.7332681 C4.52852634,17.5345235 4.76863316,17.2860928 4.92498179,16.9879759 C5.39402768,17.683582 5.95799951,18.031385 6.61689731,18.031385 C7.03010439,18.031385 7.38747269,17.90993 7.68900218,17.6670199 C7.99053168,17.4241099 8.14688031,17.0983895 8.15804807,16.689859 C8.15804807,16.3696593 8.07987376,16.1101872 7.92352513,15.9114426 C7.7671765,15.712698 7.61641175,15.591243 7.47123088,15.5470775 C7.32605001,15.5029121 7.19762078,15.4808293 7.08594319,15.4808293 C6.87375577,15.4808293 6.7006555,15.5415568 6.56664239,15.6630119 C6.43262928,15.7844669 6.36562272,15.9445667 6.36562272,16.1433113 C6.36562272,16.6512142 6.6448167,16.9990172 7.20320466,17.1867205 C7.08035931,17.3302582 6.85700413,17.4020271 6.53313911,17.4020271 C6.38795824,17.4020271 6.28186453,17.3909858 6.21485798,17.368903 C5.79048313,17.1922412 5.47778587,16.8278761 5.27676621,16.2758077 C4.60670066,13.8356657 4.27166788,12.4113294 4.27166788,12.0027988 C4.27166788,11.6936406 4.36100995,11.4728132 4.5396941,11.3403168 C4.71837825,11.2078204 4.91381403,11.1415722 5.12600146,11.1415722 C5.53920855,11.1415722 5.94683176,11.3237548 6.34887109,11.6881199 C6.75091042,12.052485 7.02452051,12.4996603 7.16970138,13.0296459 C7.20320466,13.1400596 7.23670794,13.2007871 7.27021122,13.2118285 C7.30371449,13.2228698 7.39305657,13.2339112 7.53823744,13.2449526 L7.60524399,13.2449526 C7.77276038,13.2449526 7.85651857,13.2007871 7.85651857,13.1124562 C7.85651857,13.1014148 7.84535081,13.0406873 7.82301529,12.9302736 C7.64433115,12.3009157 7.29813061,11.7433267 6.78441369,11.2575066 C6.27069677,10.7716865 5.67322166,10.5287764 4.99198835,10.5287764 C4.21024521,10.5287764 3.61835397,10.8765794 3.21631464,11.5721855 C2.75843651,10.8876208 2.23355183,10.5453384 1.6416606,10.5453384 L1.54115076,10.5453384 C0.993930566,10.5453384 0.603058995,10.6888762 0.368536052,10.9759517 C0.13401311,11.2630273 0.0111677592,11.5666649 1.687539e-14,11.8868645 C1.687539e-14,12.2401882 0.106093712,12.5272638 0.318281136,12.7480911 C0.53046856,12.9689184 0.781743142,13.0793321 1.07210488,13.0793321 C1.55231852,13.0793321 1.79242535,12.8474634 1.79242535,12.383726 C1.79242535,12.1628987 1.72541879,11.9696747 1.59140568,11.8040542 C1.45739257,11.6384337 1.32896334,11.5280201 1.20611799,11.4728132 C1.08327264,11.4176064 1.0106822,11.390003 0.988346686,11.390003 L0.93809177,11.3734409 C0.93809177,11.3623996 0.971595047,11.3403168 1.0386016,11.3071927 C1.10560816,11.2740686 1.19495023,11.2354239 1.30662782,11.1912584 C1.41830541,11.1470929 1.52439913,11.1305309 1.62490896,11.1415722 C2.02694829,11.1415722 2.37314882,11.390003 2.66351056,11.8868645 C2.76402039,12.0635264 2.89244962,12.4389328 3.04879825,13.0130839 C3.20514688,13.5872349 3.36149551,14.1834687 3.51784414,14.8017853 C3.67419277,15.4201018 3.76353484,15.7844669 3.78587036,15.8948806 C3.84170915,16.1929975 3.86962855,16.4083041 3.86962855,16.5408005 C3.86962855,16.8499588 3.78587036,17.0707861 3.61835397,17.2032825 C3.45083758,17.3357789 3.26098568,17.4020271 3.04879825,17.4020271 C2.60208789,17.4020271 2.18329692,17.2253653 1.79242535,16.8720415 C1.40155378,16.5187178 1.12794368,16.0660218 0.971595047,15.5139534 C0.949259529,15.4145811 0.921340131,15.3593743 0.887836854,15.3483329 C0.854333576,15.3372916 0.764991503,15.3262502 0.619810634,15.3152088 L0.385287691,15.3152088 C0.318281136,15.381457 0.284777859,15.4421845 0.284777859,15.4973914 Z" id="Path" stroke="#000000" stroke-width="0.5" transform="translate(4.079024, 14.280081) scale(-1, 1) rotate(-180.000000) translate(-4.079024, -14.280081) "></path>
                    <g id="Group" transform="translate(17.101238, 6.151857) scale(-1, 1) rotate(-180.000000) translate(-17.101238, -6.151857) translate(10.101238, 0.151857)" stroke="#000000" stroke-width="0.5">
                        <path d="M0.00767225055,5.85882517 C0.00767225055,6.39745616 0.0471502792,6.90876528 0.126106336,7.39275255 C0.205062394,7.87673981 0.29586186,8.29437398 0.398504734,8.64565506 C0.501147609,8.99693614 0.647216315,9.34041098 0.836710852,9.67607956 C1.02620539,10.0117481 1.1762219,10.2732574 1.28676038,10.4606073 C1.39729886,10.6479572 1.56310658,10.8509196 1.78418354,11.0694945 C2.0052605,11.2880694 2.13553799,11.4207756 2.17501602,11.4676131 C2.21449405,11.5144505 2.31318912,11.5964161 2.47110124,11.7135098 L2.62506555,11.7135098 L2.67243918,11.7135098 C2.78297766,11.7135098 2.8382469,11.6783817 2.8382469,11.6081255 C2.8382469,11.5847068 2.77113426,11.5027412 2.63690896,11.3622287 C2.50268366,11.2217163 2.34082374,11.0148508 2.15132921,10.7416322 C1.96183467,10.4684136 1.76839233,10.132745 1.57100218,9.73462641 C1.37361204,9.33650785 1.20780432,8.79787686 1.07357902,8.11873344 C0.939353727,7.43959002 0.872241078,6.68628727 0.872241078,5.85882517 C0.872241078,5.03136307 0.939353727,4.28196343 1.07357902,3.61062626 C1.20780432,2.93928909 1.36966424,2.39675497 1.55915878,1.98302393 C1.74865331,1.56929288 1.94209565,1.23362429 2.1394858,0.976018165 C2.33687594,0.71841204 2.50268366,0.511546516 2.63690896,0.355421592 C2.77113426,0.199296668 2.8382469,0.117331082 2.8382469,0.109524836 C2.8382469,0.0392686204 2.77902986,0.00414051249 2.66059578,0.00414051249 L2.62506555,0.00414051249 L2.47110124,0.00414051249 L2.1394858,0.285165376 C1.39729886,0.948696304 0.856449866,1.7761584 0.51693882,2.76755167 C0.177427774,3.75894494 0.00767225055,4.78936944 0.00767225055,5.85882517 Z" id="Path"></path>
                        <g transform="translate(4.472688, 2.931483)" id="Path">
                            <path d="M1.55105098,6.76801546 L1.39708667,6.70946861 C1.28654819,6.67043738 1.12863608,6.63140615 0.923350328,6.59237492 C0.718064579,6.55334369 0.489092013,6.52602183 0.236432629,6.51040934 L0.011407866,6.51040934 L0.011407866,7.04904032 L0.236432629,7.04904032 C0.607526099,7.06465282 0.950984948,7.12319966 1.26680918,7.22468086 C1.58263341,7.32616207 1.80371037,7.41983702 1.93004006,7.50570573 C2.05636975,7.59157444 2.16690823,7.67744314 2.2616555,7.76331185 C2.27744671,7.78673059 2.32482034,7.79843996 2.4037764,7.79843996 C2.47483685,7.79843996 2.5419495,7.77502122 2.60511435,7.72818375 L2.60511435,4.22708232 L2.61695776,0.714271528 C2.672227,0.659627804 2.71960063,0.624499697 2.75907866,0.608887204 C2.79855669,0.593274712 2.89330396,0.577662219 3.04332047,0.562049727 C3.19333697,0.546437234 3.43810075,0.538630988 3.7776118,0.538630988 L4.08554042,0.538630988 L4.08554042,0 L3.95526293,0 C3.78945521,0.0234187386 3.16175455,0.0351281079 2.07216096,0.0351281079 C0.998358582,0.0351281079 0.378553532,0.0234187386 0.212745812,0 L0.070624909,0 L0.070624909,0.538630988 L0.378553532,0.538630988 C0.552256858,0.538630988 0.702273367,0.538630988 0.828603059,0.538630988 C0.954932751,0.538630988 1.05362782,0.542534111 1.12468827,0.550340358 C1.19574873,0.558146604 1.25891357,0.569855973 1.31418281,0.585468466 C1.36945205,0.601080958 1.40103447,0.608887204 1.40893008,0.608887204 C1.41682569,0.608887204 1.4405125,0.62840282 1.47999053,0.667434051 C1.51946856,0.706465282 1.54315538,0.722077774 1.55105098,0.714271528 L1.55105098,6.76801546 Z"></path>
                        </g>
                        <g transform="translate(10.050983, 0.000000)" id="Path">
                            <path d="M0.0584744352,11.7018005 L0.0958874901,11.7135098 C0.127065036,11.7135098 0.158242582,11.7135098 0.189420127,11.7135098 L0.301659292,11.7135098 L0.563550676,11.432485 C1.14968854,10.768954 1.57682091,9.94149193 1.84494781,8.95009867 C2.1130747,7.9587054 2.24713815,6.9282809 2.24713815,5.85882517 C2.24713815,5.32800043 2.2159606,4.8166913 2.15360551,4.32489779 C2.09125042,3.83310428 2.01954206,3.4154701 1.93848044,3.07199527 C1.85741883,2.72852044 1.74206191,2.38504561 1.59240969,2.04157077 C1.44275747,1.69809594 1.32428279,1.43658669 1.23698566,1.25704303 C1.14968854,1.07749937 1.0218606,0.878440088 0.853501852,0.659865194 C0.685143105,0.4412903 0.585374958,0.312487238 0.554197413,0.273456007 C0.523019867,0.234424776 0.451311512,0.160265437 0.339072347,0.0509779897 C0.32036582,0.0275592511 0.307894801,0.0119467587 0.301659292,0.00414051249 L0.189420127,0.00414051249 C0.139536054,0.00414051249 0.105240754,0.00414051249 0.0865342264,0.00414051249 C0.0678276989,0.00414051249 0.052238926,0.0158498818 0.0397679077,0.0392686204 C0.0272968894,0.062687359 0.0179436257,0.097815467 0.0117081165,0.144652944 C0.0179436257,0.15245919 0.052238926,0.203199791 0.114594018,0.296874745 C1.08109794,1.55368038 1.5643499,3.40766386 1.5643499,5.85882517 C1.5643499,8.30998648 1.08109794,10.16397 0.114594018,11.4207756 C0.052238926,11.5144505 0.0179436257,11.5651911 0.0117081165,11.5729974 C0.0117081165,11.6354474 0.0272968894,11.6783817 0.0584744352,11.7018005 Z"></path>
                        </g>
                    </g>
                    <g id="Group" transform="translate(10.730153, 19.000000) scale(-1, 1) rotate(-180.000000) translate(-10.730153, -19.000000) translate(9.230153, 15.000000)" fill-rule="nonzero">
                        <path d="M1.66855304,7.15811799 C1.66855304,7.34546789 1.73287213,7.50939907 1.8615103,7.6499115 C1.99014848,7.79042393 2.13909795,7.86458327 2.30835871,7.87238951 C2.43022645,7.87238951 2.53178291,7.82555204 2.61302807,7.73187708 C2.69427324,7.63820213 2.73828104,7.52110843 2.74505147,7.380596 C2.74505147,7.20105234 2.67734716,7.03712117 2.54193856,6.88880249 C2.40652995,6.74048381 2.25758048,6.66242135 2.09509015,6.65461511 C1.9935337,6.65461511 1.89874767,6.69364634 1.81073208,6.7717088 C1.72271648,6.84977126 1.67532347,6.97857432 1.66855304,7.15811799 Z M0.0131828178,3.49308539 C0.0131828178,3.55553536 0.0436497544,3.67653218 0.104583628,3.85607584 C0.165517501,4.0356195 0.246762665,4.23467878 0.34831912,4.45325368 C0.449875576,4.67182857 0.598825043,4.87088785 0.795167524,5.05043151 C0.991510004,5.22997517 1.19462291,5.31584388 1.40450626,5.30803763 C1.66855304,5.30803763 1.88859203,5.2182658 2.06462322,5.03872214 C2.2406544,4.85917848 2.33205521,4.61718485 2.33882564,4.31274124 C2.33882564,4.18003506 2.29143263,3.96146016 2.19664661,3.65701656 C2.10186058,3.35257296 1.96645198,2.94274503 1.79042079,2.42753278 C1.6143896,1.91232053 1.47221056,1.47126762 1.36388367,1.10437405 C1.33003152,0.932636636 1.31310545,0.807736696 1.31310545,0.729674234 C1.31310545,0.534518079 1.3706541,0.436940002 1.48575142,0.436940002 C1.54668529,0.436940002 1.61100438,0.448649371 1.67870869,0.47206811 C1.74641299,0.495486848 1.82427294,0.550130572 1.91228853,0.63599928 C2.00030413,0.721867988 2.09170494,0.858477297 2.18649096,1.04582721 C2.28127699,1.23317711 2.36590737,1.46346138 2.4403821,1.73668 C2.46069339,1.83035495 2.47761947,1.88499867 2.49116033,1.90061117 C2.50470119,1.91622366 2.56224985,1.9240299 2.6638063,1.9240299 C2.79921491,1.9240299 2.86691921,1.88499867 2.86691921,1.80693621 C2.86691921,1.74448624 2.83645228,1.62348943 2.7755184,1.44394576 C2.71458453,1.2644021 2.62995415,1.06534282 2.52162726,0.846767928 C2.41330038,0.628193034 2.2609657,0.433036879 2.06462322,0.261299462 C1.86828073,0.0895620454 1.65839739,0.00369333714 1.43497319,0.00369333714 C1.21831942,0.00369333714 1.01859173,0.0856589223 0.835790106,0.249590093 C0.652988486,0.413521263 0.558202461,0.663321142 0.551432031,0.998989729 C0.551432031,1.13169591 0.568358107,1.25659585 0.602210259,1.37368955 C0.63606241,1.49078324 0.781626663,1.93573927 1.03890302,2.70855765 C1.29617937,3.49698851 1.44512884,3.96926641 1.48575142,4.12539133 C1.526374,4.28151626 1.55007051,4.43373806 1.55684094,4.58205674 C1.55684094,4.76940665 1.49929228,4.8630816 1.38419496,4.8630816 L1.36388367,4.8630816 C1.16077076,4.8630816 0.974583928,4.73427854 0.805323169,4.47667241 C0.63606241,4.21906629 0.507424234,3.89120395 0.419408639,3.49308539 C0.412638209,3.48527915 0.405867778,3.47356978 0.399097348,3.45795728 C0.392326918,3.44234479 0.388941703,3.43063542 0.388941703,3.42282918 C0.388941703,3.41502293 0.382171272,3.40721668 0.368630411,3.39941044 C0.355089551,3.39160419 0.344933905,3.38770107 0.338163475,3.38770107 C0.331393044,3.38770107 0.317852184,3.38770107 0.297540893,3.38770107 C0.277229602,3.38770107 0.25014788,3.38770107 0.216295728,3.38770107 L0.074116691,3.38770107 C0.0334941089,3.43453855 0.0131828178,3.46966665 0.0131828178,3.49308539 Z" id="Shape"></path>
                    </g>
                </g>
            </g>
            <g id="Group-3" transform="translate(147.000000, 1.000000)">
                <circle id="treeItem" stroke="#000000" stroke-width="4" fill="#FFFFFF" cx="20.5" cy="20.5" r="20.5"></circle>
                <g id="latex-eq" transform="translate(11.000000, 9.000000)" fill="#000000">
                    <g id="Group" transform="translate(10.000000, 11.500000) scale(-1, 1) rotate(-180.000000) translate(-10.000000, -11.500000) ">
                        <path d="M0.247632921,10.936129 C0.315610585,11.3516129 0.577810148,11.8313978 1.03423161,12.3754839 C1.49065307,12.9195699 2.05389658,13.1965591 2.72396213,13.2064516 C3.06385045,13.2064516 3.37460549,13.1174194 3.65622724,12.9393548 C3.93784899,12.7612903 4.14663753,12.5387097 4.28259286,12.2716129 C4.69045885,12.8948387 5.18086914,13.2064516 5.75382374,13.2064516 C6.11313426,13.2064516 6.42388929,13.0976344 6.68608886,12.88 C6.94828842,12.6623656 7.08424375,12.3705376 7.09395484,12.0045161 C7.09395484,11.7176344 7.02597718,11.4851613 6.89002185,11.3070968 C6.75406652,11.1290323 6.62296674,11.0202151 6.49672251,10.9806452 C6.37047827,10.9410753 6.25880068,10.9212903 6.16168973,10.9212903 C5.97717893,10.9212903 5.82665696,10.9756989 5.71012382,11.0845161 C5.59359068,11.1933333 5.53532411,11.3367742 5.53532411,11.5148387 C5.53532411,11.9698925 5.77810148,12.2815054 6.26365623,12.4496774 C6.15683418,12.5782796 5.96261228,12.6425806 5.68099053,12.6425806 C5.5547463,12.6425806 5.4624909,12.6326882 5.40422433,12.6129032 C5.03520272,12.4546237 4.76329206,12.128172 4.58849235,11.6335484 C4.00582666,9.44731183 3.71449381,8.1711828 3.71449381,7.80516129 C3.71449381,7.52817204 3.79218257,7.33032258 3.94756009,7.2116129 C4.10293761,7.09290323 4.27288177,7.03354839 4.45739257,7.03354839 C4.81670308,7.03354839 5.17115805,7.19677419 5.52075747,7.52322581 C5.87035688,7.84967742 6.10827871,8.25032258 6.23452294,8.72516129 C6.26365623,8.82408602 6.29278951,8.87849462 6.3219228,8.8883871 C6.35105608,8.89827957 6.42874484,8.90817204 6.55498908,8.91806452 L6.61325564,8.91806452 C6.75892207,8.91806452 6.83175528,8.87849462 6.83175528,8.79935484 C6.83175528,8.78946237 6.82204419,8.73505376 6.802622,8.63612903 C6.64724448,8.07225806 6.34620053,7.57268817 5.89949017,7.13741935 C5.4527798,6.70215054 4.93323622,6.48451613 4.34085943,6.48451613 C3.66108279,6.48451613 3.14639476,6.79612903 2.79679534,7.41935484 C2.39864045,6.80602151 1.94221899,6.49935484 1.42753095,6.49935484 L1.3401311,6.49935484 C0.864287448,6.49935484 0.524399126,6.62795699 0.320466133,6.88516129 C0.116533139,7.14236559 0.00971109493,7.4144086 0,7.70129032 C0,8.01784946 0.0922554018,8.27505376 0.276766205,8.47290323 C0.461277009,8.67075269 0.679776645,8.76967742 0.932265113,8.76967742 C1.34984219,8.76967742 1.55863074,8.56193548 1.55863074,8.14645161 C1.55863074,7.94860215 1.50036417,7.77548387 1.38383103,7.62709677 C1.26729789,7.47870968 1.1556203,7.37978495 1.04879825,7.33032258 C0.941976208,7.28086022 0.878854091,7.25612903 0.859431901,7.25612903 L0.815731974,7.24129032 C0.815731974,7.23139785 0.844865259,7.2116129 0.903131828,7.18193548 C0.961398398,7.15225806 1.03908716,7.11763441 1.13619811,7.07806452 C1.23330906,7.03849462 1.32556446,7.02365591 1.41296431,7.03354839 C1.76256373,7.03354839 2.06360767,7.25612903 2.31609614,7.70129032 C2.40349599,7.85956989 2.51517359,8.19591398 2.65112891,8.71032258 C2.78708424,9.22473118 2.92303957,9.75892473 3.0589949,10.3129032 C3.19495023,10.8668817 3.27263899,11.1933333 3.29206118,11.2922581 C3.34061665,11.5593548 3.36489439,11.7522581 3.36489439,11.8709677 C3.36489439,12.147957 3.29206118,12.3458065 3.14639476,12.4645161 C3.00072833,12.5832258 2.83563972,12.6425806 2.65112891,12.6425806 C2.26268512,12.6425806 1.89851906,12.4843011 1.55863074,12.1677419 C1.21874241,11.8511828 0.980820588,11.4455914 0.844865259,10.9509677 C0.825443069,10.8619355 0.801165331,10.8124731 0.772032047,10.8025806 C0.742898762,10.7926882 0.665210002,10.7827957 0.538965768,10.7729032 L0.335032775,10.7729032 C0.276766205,10.8322581 0.247632921,10.8866667 0.247632921,10.936129 Z" id="Path" stroke="#000000" stroke-width="0.5"></path>
                        <g transform="translate(8.783685, 11.752258)" id="Path" stroke="#000000" stroke-width="0.5">
                            <path d="M0.00667152221,5.24919355 C0.00667152221,5.73177806 0.0410002428,6.18988366 0.109657684,6.62351032 C0.178315125,7.05713699 0.257271182,7.43131484 0.346525856,7.74604387 C0.435780529,8.0607729 0.562796795,8.36850796 0.727574654,8.66924903 C0.892352513,8.96999011 1.02280165,9.20428839 1.11892207,9.37214387 C1.21504249,9.53999935 1.35922311,9.7218428 1.55146395,9.91767419 C1.74370478,10.1135056 1.85698956,10.2324032 1.89131828,10.2743671 C1.925647,10.316331 2.0114688,10.3897677 2.14878369,10.4946774 L2.2826657,10.4946774 L2.32386016,10.4946774 C2.41998058,10.4946774 2.46804079,10.4632045 2.46804079,10.4002587 C2.46804079,10.3792768 2.40968196,10.30584 2.29296431,10.1799484 C2.17624666,10.0540568 2.03549891,9.86871634 1.87072105,9.6239271 C1.70594319,9.37913785 1.53773246,9.07839677 1.36608886,8.72170387 C1.19444525,8.36501097 1.05026463,7.88242645 0.933546977,7.27395032 C0.816829328,6.66547419 0.758470503,5.99055527 0.758470503,5.24919355 C0.758470503,4.50783183 0.816829328,3.83640989 0.933546977,3.23492774 C1.05026463,2.63344559 1.19101238,2.14736409 1.35579024,1.77668323 C1.5205681,1.40600237 1.68877883,1.10526129 1.86042243,0.87446 C2.03206604,0.64365871 2.17624666,0.45831828 2.29296431,0.31843871 C2.40968196,0.17855914 2.46804079,0.105122366 2.46804079,0.0981283871 C2.46804079,0.0351825806 2.41654771,0.00370967742 2.31356154,0.00370967742 L2.2826657,0.00370967742 L2.14878369,0.00370967742 L1.86042243,0.255492903 C1.21504249,0.849981075 0.744739014,1.5913428 0.449512017,2.47957806 C0.154285021,3.36781333 0.00667152221,4.29101849 0.00667152221,5.24919355 Z"></path>
                            <g transform="translate(3.889294, 2.626452)">
                                <path d="M1.34873999,6.06377935 L1.21485798,6.01132452 C1.11873756,5.97635462 0.981422675,5.94138473 0.802913328,5.90641484 C0.624403982,5.87144495 0.425297402,5.84696602 0.205593591,5.83297806 L0.00991988347,5.83297806 L0.00991988347,6.31556258 L0.205593591,6.31556258 C0.528283564,6.32955054 0.826943433,6.38200538 1.1015732,6.4729271 C1.37620296,6.56384882 1.5684438,6.64777656 1.6782957,6.72471032 C1.78814761,6.80164409 1.88426803,6.87857785 1.96665696,6.95551161 C1.98038844,6.97649355 2.02158291,6.98698452 2.09024035,6.98698452 C2.15203205,6.98698452 2.21039087,6.96600258 2.26531682,6.92403871 L2.26531682,3.78723935 L2.27561544,0.639949032 C2.32367565,0.590991183 2.36487011,0.55951828 2.39919883,0.545530323 C2.43352756,0.531542366 2.51591648,0.517554409 2.64636562,0.503566452 C2.77681476,0.489578495 2.98965283,0.482584516 3.28487983,0.482584516 L3.55264385,0.482584516 L3.55264385,0 L3.43935907,0 C3.29517844,0.0209819355 2.74935178,0.0314729032 1.8018791,0.0314729032 C0.868137898,0.0314729032 0.329176985,0.0209819355 0.184996358,0 L0.0614129643,0 L0.0614129643,0.482584516 L0.329176985,0.482584516 C0.480223355,0.482584516 0.610672493,0.482584516 0.720524399,0.482584516 C0.830376305,0.482584516 0.916198106,0.486081505 0.977989803,0.493075484 C1.0397815,0.500069462 1.09470745,0.51056043 1.14276766,0.524548387 C1.19082787,0.538536344 1.21829085,0.545530323 1.22515659,0.545530323 C1.23202234,0.545530323 1.25261957,0.563015269 1.28694829,0.597985161 C1.32127701,0.632955054 1.34187424,0.646943011 1.34873999,0.639949032 L1.34873999,6.06377935 Z"></path>
                            </g>
                            <g transform="translate(8.739985, 0.000000)">
                                <path d="M0.0508473349,10.4841865 L0.0833804262,10.4946774 C0.110491336,10.4946774 0.137602245,10.4946774 0.164713154,10.4946774 L0.262312428,10.4946774 L0.490044066,10.2428942 C0.999729162,9.64840602 1.37114862,8.9070443 1.60430244,8.01880903 C1.83745626,7.13057376 1.95403317,6.2073686 1.95403317,5.24919355 C1.95403317,4.77360301 1.92692226,4.31549742 1.87270044,3.87487677 C1.81847862,3.43425613 1.75612353,3.06007828 1.68563517,2.75234323 C1.6151468,2.44460817 1.51483644,2.13687312 1.38470408,1.82913806 C1.25457171,1.52140301 1.15155025,1.28710473 1.07563971,1.12624323 C0.999729162,0.96538172 0.888574434,0.787035269 0.742175523,0.591203871 C0.595776613,0.395372473 0.509021703,0.279971828 0.481910794,0.245001935 C0.454799884,0.210032043 0.392444793,0.143589247 0.294845519,0.0456735484 C0.278578974,0.0246916129 0.26773461,0.0107036559 0.262312428,0.00370967742 L0.164713154,0.00370967742 C0.121335699,0.00370967742 0.091513699,0.00370967742 0.0752471534,0.00370967742 C0.0589806077,0.00370967742 0.0454251531,0.0142006452 0.0345807893,0.0351825806 C0.0237364256,0.0561645161 0.0156031528,0.0876374194 0.0101809709,0.12960129 C0.0156031528,0.136595269 0.0454251531,0.182056129 0.0996469718,0.265983871 C0.940085162,1.39201441 1.36030426,3.0530843 1.36030426,5.24919355 C1.36030426,7.4453028 0.940085162,9.10637269 0.0996469718,10.2324032 C0.0454251531,10.316331 0.0156031528,10.3617918 0.0101809709,10.3687858 C0.0101809709,10.4247376 0.0237364256,10.4632045 0.0508473349,10.4841865 Z"></path>
                            </g>
                        </g>
                        <g transform="translate(7.691187, 0.000000)" fill-rule="nonzero" id="Shape">
                            <path d="M3.18978878,8.40422968 C3.18978878,8.62104301 3.2618791,8.78889849 3.40605972,8.90779613 C3.55024035,9.02669376 3.69785385,9.08614258 3.84890022,9.08614258 C3.96561787,9.08614258 4.06173829,9.05117269 4.13726147,8.9812329 C4.21278466,8.91129312 4.26084487,8.81337742 4.2814421,8.68748581 C4.2814421,8.49165441 4.21621753,8.32729591 4.08576839,8.19441032 C3.95531925,8.06152473 3.80427288,7.99508194 3.63262928,7.99508194 C3.50904588,7.99508194 3.40605972,8.03005183 3.32367079,8.09999161 C3.24128186,8.1699314 3.19665453,8.27134409 3.18978878,8.40422968 Z M3.09710124,6.09621677 C3.09710124,6.29904215 3.00784656,6.40045484 2.82933722,6.40045484 C2.67829085,6.40045484 2.53411022,6.35849097 2.39679534,6.27456323 C2.25948046,6.19063548 2.13932993,6.08222882 2.03634377,5.94934323 C1.93335761,5.81645763 1.85096868,5.68706903 1.78917698,5.56117742 C1.72738529,5.43528581 1.66902646,5.32338215 1.61410051,5.22546645 L1.5420102,5.0785929 C1.52827871,5.07159892 1.47335276,5.06810194 1.37723234,5.06810194 L1.23305171,5.06810194 C1.19185725,5.11006581 1.17126001,5.13804172 1.17126001,5.15202968 C1.17126001,5.16601763 1.1849915,5.21147849 1.21245448,5.28841226 C1.35663511,5.6311172 1.55917456,5.95284022 1.82007283,6.25358129 C2.08097111,6.55432237 2.38306385,6.72917183 2.72635106,6.77812968 C2.7332168,6.77812968 2.76067978,6.77812968 2.80873999,6.77812968 C2.85680019,6.77812968 2.89799466,6.78162667 2.93232338,6.78862065 C3.09710124,6.78162667 3.24814761,6.74665677 3.38546249,6.68371097 C3.55710609,6.58579527 3.68755523,6.4773886 3.77680991,6.35849097 C3.86606458,6.23959333 3.91069192,6.0542529 3.91069192,5.80246968 L3.91069192,5.63461419 L3.40605972,3.54691161 C3.05590677,2.14811591 2.87053168,1.42074215 2.84993445,1.36479032 C2.72635106,1.0150914 2.48605001,0.703859355 2.12903132,0.431094194 C1.77201262,0.158329032 1.36350085,0.0184494624 0.903495994,0.0114554839 C0.560208789,0.0114554839 0.326773489,0.0848922581 0.203190095,0.231765806 C0.0796067007,0.378639355 0.0143821316,0.53950086 0.00751638747,0.714350323 C0.00751638747,0.903187742 0.0727409565,1.06404925 0.203190095,1.19693484 C0.333639233,1.32982043 0.491551347,1.39976022 0.676926438,1.40675419 C0.793644088,1.40675419 0.893197378,1.3717843 0.975586307,1.30184452 C1.05797524,1.23190473 1.10260257,1.12349806 1.10946832,0.976624516 C1.10946832,0.72484129 0.999616412,0.532506882 0.7799126,0.39962129 C0.821107065,0.392627312 0.869167274,0.389130323 0.924093227,0.389130323 C1.15752853,0.389130323 1.37036659,0.487046022 1.56260743,0.682877419 C1.75484826,0.878708817 1.90246176,1.10951011 2.00544792,1.37528129 L2.1187327,1.81590194 C2.19425589,2.11664301 2.28351056,2.48032989 2.38649672,2.90696258 C2.48948288,3.33359527 2.59933479,3.77071892 2.71605244,4.21833355 C2.83277009,4.66594817 2.92545764,5.05411398 2.99411508,5.38283097 C3.06277252,5.71154796 3.10053411,5.91087634 3.10739985,5.98081613 C3.10739985,6.02977398 3.10396698,6.06824086 3.09710124,6.09621677 Z"></path>
                        </g>
                    </g>
                </g>
            </g>
            <polyline id="Line" stroke="#000000" stroke-width="3" stroke-linecap="square" points="1.15463195e-14 234 5.36376499e-14 229.555695 4 229.555695 4 225 8 225 8 221 12 221 12 217 16 217"></polyline>
        </g>
        <g id="Group-6" transform="translate(413.000000, 11.000000)">
            <path d="M127.607076,94.9445333 L87,21" id="treeEdge" stroke="#808080" stroke-width="3.94370844" fill="#000000" stroke-dasharray="4,4"></path>
            <path d="M128,94.9445333 L168.607076,21" id="treeEdge" stroke="#808080" stroke-width="3.94370844" fill="#000000" stroke-dasharray="4,4"></path>
            <g id="Group-2" transform="translate(68.000000, 0.000000)">
                <path d="M20.5,41 C31.8218374,41 41,31.8218374 41,20.5 C41,9.17816263 31.8218374,0 20.5,0 C9.17816263,0 0,9.17816263 0,20.5 C0,31.8218374 9.17816263,41 20.5,41 Z" id="treeItem" stroke="#808080" stroke-width="4" fill="#FFFFFF" stroke-dasharray="4,4"></path>
                <g id="Group-5" transform="translate(9.000000, 9.000000)" fill="#808080">
                    <path d="M0.284777859,15.4973914 C0.362952173,15.9611288 0.66448167,16.4966351 1.18936635,17.1039102 C1.71425103,17.7111854 2.36198106,18.0203437 3.13255645,18.031385 C3.52342802,18.031385 3.88079631,17.9320127 4.20466133,17.7332681 C4.52852634,17.5345235 4.76863316,17.2860928 4.92498179,16.9879759 C5.39402768,17.683582 5.95799951,18.031385 6.61689731,18.031385 C7.03010439,18.031385 7.38747269,17.90993 7.68900218,17.6670199 C7.99053168,17.4241099 8.14688031,17.0983895 8.15804807,16.689859 C8.15804807,16.3696593 8.07987376,16.1101872 7.92352513,15.9114426 C7.7671765,15.712698 7.61641175,15.591243 7.47123088,15.5470775 C7.32605001,15.5029121 7.19762078,15.4808293 7.08594319,15.4808293 C6.87375577,15.4808293 6.7006555,15.5415568 6.56664239,15.6630119 C6.43262928,15.7844669 6.36562272,15.9445667 6.36562272,16.1433113 C6.36562272,16.6512142 6.6448167,16.9990172 7.20320466,17.1867205 C7.08035931,17.3302582 6.85700413,17.4020271 6.53313911,17.4020271 C6.38795824,17.4020271 6.28186453,17.3909858 6.21485798,17.368903 C5.79048313,17.1922412 5.47778587,16.8278761 5.27676621,16.2758077 C4.60670066,13.8356657 4.27166788,12.4113294 4.27166788,12.0027988 C4.27166788,11.6936406 4.36100995,11.4728132 4.5396941,11.3403168 C4.71837825,11.2078204 4.91381403,11.1415722 5.12600146,11.1415722 C5.53920855,11.1415722 5.94683176,11.3237548 6.34887109,11.6881199 C6.75091042,12.052485 7.02452051,12.4996603 7.16970138,13.0296459 C7.20320466,13.1400596 7.23670794,13.2007871 7.27021122,13.2118285 C7.30371449,13.2228698 7.39305657,13.2339112 7.53823744,13.2449526 L7.60524399,13.2449526 C7.77276038,13.2449526 7.85651857,13.2007871 7.85651857,13.1124562 C7.85651857,13.1014148 7.84535081,13.0406873 7.82301529,12.9302736 C7.64433115,12.3009157 7.29813061,11.7433267 6.78441369,11.2575066 C6.27069677,10.7716865 5.67322166,10.5287764 4.99198835,10.5287764 C4.21024521,10.5287764 3.61835397,10.8765794 3.21631464,11.5721855 C2.75843651,10.8876208 2.23355183,10.5453384 1.6416606,10.5453384 L1.54115076,10.5453384 C0.993930566,10.5453384 0.603058995,10.6888762 0.368536052,10.9759517 C0.13401311,11.2630273 0.0111677592,11.5666649 1.687539e-14,11.8868645 C1.687539e-14,12.2401882 0.106093712,12.5272638 0.318281136,12.7480911 C0.53046856,12.9689184 0.781743142,13.0793321 1.07210488,13.0793321 C1.55231852,13.0793321 1.79242535,12.8474634 1.79242535,12.383726 C1.79242535,12.1628987 1.72541879,11.9696747 1.59140568,11.8040542 C1.45739257,11.6384337 1.32896334,11.5280201 1.20611799,11.4728132 C1.08327264,11.4176064 1.0106822,11.390003 0.988346686,11.390003 L0.93809177,11.3734409 C0.93809177,11.3623996 0.971595047,11.3403168 1.0386016,11.3071927 C1.10560816,11.2740686 1.19495023,11.2354239 1.30662782,11.1912584 C1.41830541,11.1470929 1.52439913,11.1305309 1.62490896,11.1415722 C2.02694829,11.1415722 2.37314882,11.390003 2.66351056,11.8868645 C2.76402039,12.0635264 2.89244962,12.4389328 3.04879825,13.0130839 C3.20514688,13.5872349 3.36149551,14.1834687 3.51784414,14.8017853 C3.67419277,15.4201018 3.76353484,15.7844669 3.78587036,15.8948806 C3.84170915,16.1929975 3.86962855,16.4083041 3.86962855,16.5408005 C3.86962855,16.8499588 3.78587036,17.0707861 3.61835397,17.2032825 C3.45083758,17.3357789 3.26098568,17.4020271 3.04879825,17.4020271 C2.60208789,17.4020271 2.18329692,17.2253653 1.79242535,16.8720415 C1.40155378,16.5187178 1.12794368,16.0660218 0.971595047,15.5139534 C0.949259529,15.4145811 0.921340131,15.3593743 0.887836854,15.3483329 C0.854333576,15.3372916 0.764991503,15.3262502 0.619810634,15.3152088 L0.385287691,15.3152088 C0.318281136,15.381457 0.284777859,15.4421845 0.284777859,15.4973914 Z" id="Path" stroke="#808080" stroke-width="0.5" transform="translate(4.079024, 14.280081) scale(-1, 1) rotate(-180.000000) translate(-4.079024, -14.280081) "></path>
                    <g id="Group" transform="translate(17.101238, 6.151857) scale(-1, 1) rotate(-180.000000) translate(-17.101238, -6.151857) translate(10.101238, 0.151857)" stroke="#808080" stroke-width="0.5">
                        <path d="M0.00767225055,5.85882517 C0.00767225055,6.39745616 0.0471502792,6.90876528 0.126106336,7.39275255 C0.205062394,7.87673981 0.29586186,8.29437398 0.398504734,8.64565506 C0.501147609,8.99693614 0.647216315,9.34041098 0.836710852,9.67607956 C1.02620539,10.0117481 1.1762219,10.2732574 1.28676038,10.4606073 C1.39729886,10.6479572 1.56310658,10.8509196 1.78418354,11.0694945 C2.0052605,11.2880694 2.13553799,11.4207756 2.17501602,11.4676131 C2.21449405,11.5144505 2.31318912,11.5964161 2.47110124,11.7135098 L2.62506555,11.7135098 L2.67243918,11.7135098 C2.78297766,11.7135098 2.8382469,11.6783817 2.8382469,11.6081255 C2.8382469,11.5847068 2.77113426,11.5027412 2.63690896,11.3622287 C2.50268366,11.2217163 2.34082374,11.0148508 2.15132921,10.7416322 C1.96183467,10.4684136 1.76839233,10.132745 1.57100218,9.73462641 C1.37361204,9.33650785 1.20780432,8.79787686 1.07357902,8.11873344 C0.939353727,7.43959002 0.872241078,6.68628727 0.872241078,5.85882517 C0.872241078,5.03136307 0.939353727,4.28196343 1.07357902,3.61062626 C1.20780432,2.93928909 1.36966424,2.39675497 1.55915878,1.98302393 C1.74865331,1.56929288 1.94209565,1.23362429 2.1394858,0.976018165 C2.33687594,0.71841204 2.50268366,0.511546516 2.63690896,0.355421592 C2.77113426,0.199296668 2.8382469,0.117331082 2.8382469,0.109524836 C2.8382469,0.0392686204 2.77902986,0.00414051249 2.66059578,0.00414051249 L2.62506555,0.00414051249 L2.47110124,0.00414051249 L2.1394858,0.285165376 C1.39729886,0.948696304 0.856449866,1.7761584 0.51693882,2.76755167 C0.177427774,3.75894494 0.00767225055,4.78936944 0.00767225055,5.85882517 Z" id="Path"></path>
                        <g transform="translate(4.472688, 2.931483)" id="Path">
                            <path d="M1.55105098,6.76801546 L1.39708667,6.70946861 C1.28654819,6.67043738 1.12863608,6.63140615 0.923350328,6.59237492 C0.718064579,6.55334369 0.489092013,6.52602183 0.236432629,6.51040934 L0.011407866,6.51040934 L0.011407866,7.04904032 L0.236432629,7.04904032 C0.607526099,7.06465282 0.950984948,7.12319966 1.26680918,7.22468086 C1.58263341,7.32616207 1.80371037,7.41983702 1.93004006,7.50570573 C2.05636975,7.59157444 2.16690823,7.67744314 2.2616555,7.76331185 C2.27744671,7.78673059 2.32482034,7.79843996 2.4037764,7.79843996 C2.47483685,7.79843996 2.5419495,7.77502122 2.60511435,7.72818375 L2.60511435,4.22708232 L2.61695776,0.714271528 C2.672227,0.659627804 2.71960063,0.624499697 2.75907866,0.608887204 C2.79855669,0.593274712 2.89330396,0.577662219 3.04332047,0.562049727 C3.19333697,0.546437234 3.43810075,0.538630988 3.7776118,0.538630988 L4.08554042,0.538630988 L4.08554042,0 L3.95526293,0 C3.78945521,0.0234187386 3.16175455,0.0351281079 2.07216096,0.0351281079 C0.998358582,0.0351281079 0.378553532,0.0234187386 0.212745812,0 L0.070624909,0 L0.070624909,0.538630988 L0.378553532,0.538630988 C0.552256858,0.538630988 0.702273367,0.538630988 0.828603059,0.538630988 C0.954932751,0.538630988 1.05362782,0.542534111 1.12468827,0.550340358 C1.19574873,0.558146604 1.25891357,0.569855973 1.31418281,0.585468466 C1.36945205,0.601080958 1.40103447,0.608887204 1.40893008,0.608887204 C1.41682569,0.608887204 1.4405125,0.62840282 1.47999053,0.667434051 C1.51946856,0.706465282 1.54315538,0.722077774 1.55105098,0.714271528 L1.55105098,6.76801546 Z"></path>
                        </g>
                        <g transform="translate(10.050983, 0.000000)" id="Path">
                            <path d="M0.0584744352,11.7018005 L0.0958874901,11.7135098 C0.127065036,11.7135098 0.158242582,11.7135098 0.189420127,11.7135098 L0.301659292,11.7135098 L0.563550676,11.432485 C1.14968854,10.768954 1.57682091,9.94149193 1.84494781,8.95009867 C2.1130747,7.9587054 2.24713815,6.9282809 2.24713815,5.85882517 C2.24713815,5.32800043 2.2159606,4.8166913 2.15360551,4.32489779 C2.09125042,3.83310428 2.01954206,3.4154701 1.93848044,3.07199527 C1.85741883,2.72852044 1.74206191,2.38504561 1.59240969,2.04157077 C1.44275747,1.69809594 1.32428279,1.43658669 1.23698566,1.25704303 C1.14968854,1.07749937 1.0218606,0.878440088 0.853501852,0.659865194 C0.685143105,0.4412903 0.585374958,0.312487238 0.554197413,0.273456007 C0.523019867,0.234424776 0.451311512,0.160265437 0.339072347,0.0509779897 C0.32036582,0.0275592511 0.307894801,0.0119467587 0.301659292,0.00414051249 L0.189420127,0.00414051249 C0.139536054,0.00414051249 0.105240754,0.00414051249 0.0865342264,0.00414051249 C0.0678276989,0.00414051249 0.052238926,0.0158498818 0.0397679077,0.0392686204 C0.0272968894,0.062687359 0.0179436257,0.097815467 0.0117081165,0.144652944 C0.0179436257,0.15245919 0.052238926,0.203199791 0.114594018,0.296874745 C1.08109794,1.55368038 1.5643499,3.40766386 1.5643499,5.85882517 C1.5643499,8.30998648 1.08109794,10.16397 0.114594018,11.4207756 C0.052238926,11.5144505 0.0179436257,11.5651911 0.0117081165,11.5729974 C0.0117081165,11.6354474 0.0272968894,11.6783817 0.0584744352,11.7018005 Z"></path>
                        </g>
                    </g>
                    <g id="Group" transform="translate(10.730153, 19.000000) scale(-1, 1) rotate(-180.000000) translate(-10.730153, -19.000000) translate(9.230153, 15.000000)" fill-rule="nonzero">
                        <path d="M1.66855304,7.15811799 C1.66855304,7.34546789 1.73287213,7.50939907 1.8615103,7.6499115 C1.99014848,7.79042393 2.13909795,7.86458327 2.30835871,7.87238951 C2.43022645,7.87238951 2.53178291,7.82555204 2.61302807,7.73187708 C2.69427324,7.63820213 2.73828104,7.52110843 2.74505147,7.380596 C2.74505147,7.20105234 2.67734716,7.03712117 2.54193856,6.88880249 C2.40652995,6.74048381 2.25758048,6.66242135 2.09509015,6.65461511 C1.9935337,6.65461511 1.89874767,6.69364634 1.81073208,6.7717088 C1.72271648,6.84977126 1.67532347,6.97857432 1.66855304,7.15811799 Z M0.0131828178,3.49308539 C0.0131828178,3.55553536 0.0436497544,3.67653218 0.104583628,3.85607584 C0.165517501,4.0356195 0.246762665,4.23467878 0.34831912,4.45325368 C0.449875576,4.67182857 0.598825043,4.87088785 0.795167524,5.05043151 C0.991510004,5.22997517 1.19462291,5.31584388 1.40450626,5.30803763 C1.66855304,5.30803763 1.88859203,5.2182658 2.06462322,5.03872214 C2.2406544,4.85917848 2.33205521,4.61718485 2.33882564,4.31274124 C2.33882564,4.18003506 2.29143263,3.96146016 2.19664661,3.65701656 C2.10186058,3.35257296 1.96645198,2.94274503 1.79042079,2.42753278 C1.6143896,1.91232053 1.47221056,1.47126762 1.36388367,1.10437405 C1.33003152,0.932636636 1.31310545,0.807736696 1.31310545,0.729674234 C1.31310545,0.534518079 1.3706541,0.436940002 1.48575142,0.436940002 C1.54668529,0.436940002 1.61100438,0.448649371 1.67870869,0.47206811 C1.74641299,0.495486848 1.82427294,0.550130572 1.91228853,0.63599928 C2.00030413,0.721867988 2.09170494,0.858477297 2.18649096,1.04582721 C2.28127699,1.23317711 2.36590737,1.46346138 2.4403821,1.73668 C2.46069339,1.83035495 2.47761947,1.88499867 2.49116033,1.90061117 C2.50470119,1.91622366 2.56224985,1.9240299 2.6638063,1.9240299 C2.79921491,1.9240299 2.86691921,1.88499867 2.86691921,1.80693621 C2.86691921,1.74448624 2.83645228,1.62348943 2.7755184,1.44394576 C2.71458453,1.2644021 2.62995415,1.06534282 2.52162726,0.846767928 C2.41330038,0.628193034 2.2609657,0.433036879 2.06462322,0.261299462 C1.86828073,0.0895620454 1.65839739,0.00369333714 1.43497319,0.00369333714 C1.21831942,0.00369333714 1.01859173,0.0856589223 0.835790106,0.249590093 C0.652988486,0.413521263 0.558202461,0.663321142 0.551432031,0.998989729 C0.551432031,1.13169591 0.568358107,1.25659585 0.602210259,1.37368955 C0.63606241,1.49078324 0.781626663,1.93573927 1.03890302,2.70855765 C1.29617937,3.49698851 1.44512884,3.96926641 1.48575142,4.12539133 C1.526374,4.28151626 1.55007051,4.43373806 1.55684094,4.58205674 C1.55684094,4.76940665 1.49929228,4.8630816 1.38419496,4.8630816 L1.36388367,4.8630816 C1.16077076,4.8630816 0.974583928,4.73427854 0.805323169,4.47667241 C0.63606241,4.21906629 0.507424234,3.89120395 0.419408639,3.49308539 C0.412638209,3.48527915 0.405867778,3.47356978 0.399097348,3.45795728 C0.392326918,3.44234479 0.388941703,3.43063542 0.388941703,3.42282918 C0.388941703,3.41502293 0.382171272,3.40721668 0.368630411,3.39941044 C0.355089551,3.39160419 0.344933905,3.38770107 0.338163475,3.38770107 C0.331393044,3.38770107 0.317852184,3.38770107 0.297540893,3.38770107 C0.277229602,3.38770107 0.25014788,3.38770107 0.216295728,3.38770107 L0.074116691,3.38770107 C0.0334941089,3.43453855 0.0131828178,3.46966665 0.0131828178,3.49308539 Z" id="Shape"></path>
                    </g>
                </g>
            </g>
            <g id="Group-3" transform="translate(148.000000, 1.000000)">
                <path d="M20.5,41 C31.8218374,41 41,31.8218374 41,20.5 C41,9.17816263 31.8218374,0 20.5,0 C9.17816263,0 0,9.17816263 0,20.5 C0,31.8218374 9.17816263,41 20.5,41 Z" id="treeItem" stroke="#808080" stroke-width="4" fill="#FFFFFF" stroke-dasharray="4,4"></path>
                <g id="latex-eq" transform="translate(11.000000, 9.000000)" fill="#808080">
                    <g id="Group" transform="translate(10.000000, 11.500000) scale(-1, 1) rotate(-180.000000) translate(-10.000000, -11.500000) ">
                        <path d="M0.247632921,10.936129 C0.315610585,11.3516129 0.577810148,11.8313978 1.03423161,12.3754839 C1.49065307,12.9195699 2.05389658,13.1965591 2.72396213,13.2064516 C3.06385045,13.2064516 3.37460549,13.1174194 3.65622724,12.9393548 C3.93784899,12.7612903 4.14663753,12.5387097 4.28259286,12.2716129 C4.69045885,12.8948387 5.18086914,13.2064516 5.75382374,13.2064516 C6.11313426,13.2064516 6.42388929,13.0976344 6.68608886,12.88 C6.94828842,12.6623656 7.08424375,12.3705376 7.09395484,12.0045161 C7.09395484,11.7176344 7.02597718,11.4851613 6.89002185,11.3070968 C6.75406652,11.1290323 6.62296674,11.0202151 6.49672251,10.9806452 C6.37047827,10.9410753 6.25880068,10.9212903 6.16168973,10.9212903 C5.97717893,10.9212903 5.82665696,10.9756989 5.71012382,11.0845161 C5.59359068,11.1933333 5.53532411,11.3367742 5.53532411,11.5148387 C5.53532411,11.9698925 5.77810148,12.2815054 6.26365623,12.4496774 C6.15683418,12.5782796 5.96261228,12.6425806 5.68099053,12.6425806 C5.5547463,12.6425806 5.4624909,12.6326882 5.40422433,12.6129032 C5.03520272,12.4546237 4.76329206,12.128172 4.58849235,11.6335484 C4.00582666,9.44731183 3.71449381,8.1711828 3.71449381,7.80516129 C3.71449381,7.52817204 3.79218257,7.33032258 3.94756009,7.2116129 C4.10293761,7.09290323 4.27288177,7.03354839 4.45739257,7.03354839 C4.81670308,7.03354839 5.17115805,7.19677419 5.52075747,7.52322581 C5.87035688,7.84967742 6.10827871,8.25032258 6.23452294,8.72516129 C6.26365623,8.82408602 6.29278951,8.87849462 6.3219228,8.8883871 C6.35105608,8.89827957 6.42874484,8.90817204 6.55498908,8.91806452 L6.61325564,8.91806452 C6.75892207,8.91806452 6.83175528,8.87849462 6.83175528,8.79935484 C6.83175528,8.78946237 6.82204419,8.73505376 6.802622,8.63612903 C6.64724448,8.07225806 6.34620053,7.57268817 5.89949017,7.13741935 C5.4527798,6.70215054 4.93323622,6.48451613 4.34085943,6.48451613 C3.66108279,6.48451613 3.14639476,6.79612903 2.79679534,7.41935484 C2.39864045,6.80602151 1.94221899,6.49935484 1.42753095,6.49935484 L1.3401311,6.49935484 C0.864287448,6.49935484 0.524399126,6.62795699 0.320466133,6.88516129 C0.116533139,7.14236559 0.00971109493,7.4144086 0,7.70129032 C0,8.01784946 0.0922554018,8.27505376 0.276766205,8.47290323 C0.461277009,8.67075269 0.679776645,8.76967742 0.932265113,8.76967742 C1.34984219,8.76967742 1.55863074,8.56193548 1.55863074,8.14645161 C1.55863074,7.94860215 1.50036417,7.77548387 1.38383103,7.62709677 C1.26729789,7.47870968 1.1556203,7.37978495 1.04879825,7.33032258 C0.941976208,7.28086022 0.878854091,7.25612903 0.859431901,7.25612903 L0.815731974,7.24129032 C0.815731974,7.23139785 0.844865259,7.2116129 0.903131828,7.18193548 C0.961398398,7.15225806 1.03908716,7.11763441 1.13619811,7.07806452 C1.23330906,7.03849462 1.32556446,7.02365591 1.41296431,7.03354839 C1.76256373,7.03354839 2.06360767,7.25612903 2.31609614,7.70129032 C2.40349599,7.85956989 2.51517359,8.19591398 2.65112891,8.71032258 C2.78708424,9.22473118 2.92303957,9.75892473 3.0589949,10.3129032 C3.19495023,10.8668817 3.27263899,11.1933333 3.29206118,11.2922581 C3.34061665,11.5593548 3.36489439,11.7522581 3.36489439,11.8709677 C3.36489439,12.147957 3.29206118,12.3458065 3.14639476,12.4645161 C3.00072833,12.5832258 2.83563972,12.6425806 2.65112891,12.6425806 C2.26268512,12.6425806 1.89851906,12.4843011 1.55863074,12.1677419 C1.21874241,11.8511828 0.980820588,11.4455914 0.844865259,10.9509677 C0.825443069,10.8619355 0.801165331,10.8124731 0.772032047,10.8025806 C0.742898762,10.7926882 0.665210002,10.7827957 0.538965768,10.7729032 L0.335032775,10.7729032 C0.276766205,10.8322581 0.247632921,10.8866667 0.247632921,10.936129 Z" id="Path" stroke="#808080" stroke-width="0.5"></path>
                        <g transform="translate(8.783685, 11.752258)" id="Path" stroke="#808080" stroke-width="0.5">
                            <path d="M0.00667152221,5.24919355 C0.00667152221,5.73177806 0.0410002428,6.18988366 0.109657684,6.62351032 C0.178315125,7.05713699 0.257271182,7.43131484 0.346525856,7.74604387 C0.435780529,8.0607729 0.562796795,8.36850796 0.727574654,8.66924903 C0.892352513,8.96999011 1.02280165,9.20428839 1.11892207,9.37214387 C1.21504249,9.53999935 1.35922311,9.7218428 1.55146395,9.91767419 C1.74370478,10.1135056 1.85698956,10.2324032 1.89131828,10.2743671 C1.925647,10.316331 2.0114688,10.3897677 2.14878369,10.4946774 L2.2826657,10.4946774 L2.32386016,10.4946774 C2.41998058,10.4946774 2.46804079,10.4632045 2.46804079,10.4002587 C2.46804079,10.3792768 2.40968196,10.30584 2.29296431,10.1799484 C2.17624666,10.0540568 2.03549891,9.86871634 1.87072105,9.6239271 C1.70594319,9.37913785 1.53773246,9.07839677 1.36608886,8.72170387 C1.19444525,8.36501097 1.05026463,7.88242645 0.933546977,7.27395032 C0.816829328,6.66547419 0.758470503,5.99055527 0.758470503,5.24919355 C0.758470503,4.50783183 0.816829328,3.83640989 0.933546977,3.23492774 C1.05026463,2.63344559 1.19101238,2.14736409 1.35579024,1.77668323 C1.5205681,1.40600237 1.68877883,1.10526129 1.86042243,0.87446 C2.03206604,0.64365871 2.17624666,0.45831828 2.29296431,0.31843871 C2.40968196,0.17855914 2.46804079,0.105122366 2.46804079,0.0981283871 C2.46804079,0.0351825806 2.41654771,0.00370967742 2.31356154,0.00370967742 L2.2826657,0.00370967742 L2.14878369,0.00370967742 L1.86042243,0.255492903 C1.21504249,0.849981075 0.744739014,1.5913428 0.449512017,2.47957806 C0.154285021,3.36781333 0.00667152221,4.29101849 0.00667152221,5.24919355 Z"></path>
                            <g transform="translate(3.889294, 2.626452)">
                                <path d="M1.34873999,6.06377935 L1.21485798,6.01132452 C1.11873756,5.97635462 0.981422675,5.94138473 0.802913328,5.90641484 C0.624403982,5.87144495 0.425297402,5.84696602 0.205593591,5.83297806 L0.00991988347,5.83297806 L0.00991988347,6.31556258 L0.205593591,6.31556258 C0.528283564,6.32955054 0.826943433,6.38200538 1.1015732,6.4729271 C1.37620296,6.56384882 1.5684438,6.64777656 1.6782957,6.72471032 C1.78814761,6.80164409 1.88426803,6.87857785 1.96665696,6.95551161 C1.98038844,6.97649355 2.02158291,6.98698452 2.09024035,6.98698452 C2.15203205,6.98698452 2.21039087,6.96600258 2.26531682,6.92403871 L2.26531682,3.78723935 L2.27561544,0.639949032 C2.32367565,0.590991183 2.36487011,0.55951828 2.39919883,0.545530323 C2.43352756,0.531542366 2.51591648,0.517554409 2.64636562,0.503566452 C2.77681476,0.489578495 2.98965283,0.482584516 3.28487983,0.482584516 L3.55264385,0.482584516 L3.55264385,0 L3.43935907,0 C3.29517844,0.0209819355 2.74935178,0.0314729032 1.8018791,0.0314729032 C0.868137898,0.0314729032 0.329176985,0.0209819355 0.184996358,0 L0.0614129643,0 L0.0614129643,0.482584516 L0.329176985,0.482584516 C0.480223355,0.482584516 0.610672493,0.482584516 0.720524399,0.482584516 C0.830376305,0.482584516 0.916198106,0.486081505 0.977989803,0.493075484 C1.0397815,0.500069462 1.09470745,0.51056043 1.14276766,0.524548387 C1.19082787,0.538536344 1.21829085,0.545530323 1.22515659,0.545530323 C1.23202234,0.545530323 1.25261957,0.563015269 1.28694829,0.597985161 C1.32127701,0.632955054 1.34187424,0.646943011 1.34873999,0.639949032 L1.34873999,6.06377935 Z"></path>
                            </g>
                            <g transform="translate(8.739985, 0.000000)">
                                <path d="M0.0508473349,10.4841865 L0.0833804262,10.4946774 C0.110491336,10.4946774 0.137602245,10.4946774 0.164713154,10.4946774 L0.262312428,10.4946774 L0.490044066,10.2428942 C0.999729162,9.64840602 1.37114862,8.9070443 1.60430244,8.01880903 C1.83745626,7.13057376 1.95403317,6.2073686 1.95403317,5.24919355 C1.95403317,4.77360301 1.92692226,4.31549742 1.87270044,3.87487677 C1.81847862,3.43425613 1.75612353,3.06007828 1.68563517,2.75234323 C1.6151468,2.44460817 1.51483644,2.13687312 1.38470408,1.82913806 C1.25457171,1.52140301 1.15155025,1.28710473 1.07563971,1.12624323 C0.999729162,0.96538172 0.888574434,0.787035269 0.742175523,0.591203871 C0.595776613,0.395372473 0.509021703,0.279971828 0.481910794,0.245001935 C0.454799884,0.210032043 0.392444793,0.143589247 0.294845519,0.0456735484 C0.278578974,0.0246916129 0.26773461,0.0107036559 0.262312428,0.00370967742 L0.164713154,0.00370967742 C0.121335699,0.00370967742 0.091513699,0.00370967742 0.0752471534,0.00370967742 C0.0589806077,0.00370967742 0.0454251531,0.0142006452 0.0345807893,0.0351825806 C0.0237364256,0.0561645161 0.0156031528,0.0876374194 0.0101809709,0.12960129 C0.0156031528,0.136595269 0.0454251531,0.182056129 0.0996469718,0.265983871 C0.940085162,1.39201441 1.36030426,3.0530843 1.36030426,5.24919355 C1.36030426,7.4453028 0.940085162,9.10637269 0.0996469718,10.2324032 C0.0454251531,10.316331 0.0156031528,10.3617918 0.0101809709,10.3687858 C0.0101809709,10.4247376 0.0237364256,10.4632045 0.0508473349,10.4841865 Z"></path>
                            </g>
                        </g>
                        <g transform="translate(7.691187, 0.000000)" fill-rule="nonzero" id="Shape">
                            <path d="M3.18978878,8.40422968 C3.18978878,8.62104301 3.2618791,8.78889849 3.40605972,8.90779613 C3.55024035,9.02669376 3.69785385,9.08614258 3.84890022,9.08614258 C3.96561787,9.08614258 4.06173829,9.05117269 4.13726147,8.9812329 C4.21278466,8.91129312 4.26084487,8.81337742 4.2814421,8.68748581 C4.2814421,8.49165441 4.21621753,8.32729591 4.08576839,8.19441032 C3.95531925,8.06152473 3.80427288,7.99508194 3.63262928,7.99508194 C3.50904588,7.99508194 3.40605972,8.03005183 3.32367079,8.09999161 C3.24128186,8.1699314 3.19665453,8.27134409 3.18978878,8.40422968 Z M3.09710124,6.09621677 C3.09710124,6.29904215 3.00784656,6.40045484 2.82933722,6.40045484 C2.67829085,6.40045484 2.53411022,6.35849097 2.39679534,6.27456323 C2.25948046,6.19063548 2.13932993,6.08222882 2.03634377,5.94934323 C1.93335761,5.81645763 1.85096868,5.68706903 1.78917698,5.56117742 C1.72738529,5.43528581 1.66902646,5.32338215 1.61410051,5.22546645 L1.5420102,5.0785929 C1.52827871,5.07159892 1.47335276,5.06810194 1.37723234,5.06810194 L1.23305171,5.06810194 C1.19185725,5.11006581 1.17126001,5.13804172 1.17126001,5.15202968 C1.17126001,5.16601763 1.1849915,5.21147849 1.21245448,5.28841226 C1.35663511,5.6311172 1.55917456,5.95284022 1.82007283,6.25358129 C2.08097111,6.55432237 2.38306385,6.72917183 2.72635106,6.77812968 C2.7332168,6.77812968 2.76067978,6.77812968 2.80873999,6.77812968 C2.85680019,6.77812968 2.89799466,6.78162667 2.93232338,6.78862065 C3.09710124,6.78162667 3.24814761,6.74665677 3.38546249,6.68371097 C3.55710609,6.58579527 3.68755523,6.4773886 3.77680991,6.35849097 C3.86606458,6.23959333 3.91069192,6.0542529 3.91069192,5.80246968 L3.91069192,5.63461419 L3.40605972,3.54691161 C3.05590677,2.14811591 2.87053168,1.42074215 2.84993445,1.36479032 C2.72635106,1.0150914 2.48605001,0.703859355 2.12903132,0.431094194 C1.77201262,0.158329032 1.36350085,0.0184494624 0.903495994,0.0114554839 C0.560208789,0.0114554839 0.326773489,0.0848922581 0.203190095,0.231765806 C0.0796067007,0.378639355 0.0143821316,0.53950086 0.00751638747,0.714350323 C0.00751638747,0.903187742 0.0727409565,1.06404925 0.203190095,1.19693484 C0.333639233,1.32982043 0.491551347,1.39976022 0.676926438,1.40675419 C0.793644088,1.40675419 0.893197378,1.3717843 0.975586307,1.30184452 C1.05797524,1.23190473 1.10260257,1.12349806 1.10946832,0.976624516 C1.10946832,0.72484129 0.999616412,0.532506882 0.7799126,0.39962129 C0.821107065,0.392627312 0.869167274,0.389130323 0.924093227,0.389130323 C1.15752853,0.389130323 1.37036659,0.487046022 1.56260743,0.682877419 C1.75484826,0.878708817 1.90246176,1.10951011 2.00544792,1.37528129 L2.1187327,1.81590194 C2.19425589,2.11664301 2.28351056,2.48032989 2.38649672,2.90696258 C2.48948288,3.33359527 2.59933479,3.77071892 2.71605244,4.21833355 C2.83277009,4.66594817 2.92545764,5.05411398 2.99411508,5.38283097 C3.06277252,5.71154796 3.10053411,5.91087634 3.10739985,5.98081613 C3.10739985,6.02977398 3.10396698,6.06824086 3.09710124,6.09621677 Z"></path>
                        </g>
                    </g>
                </g>
            </g>
            <path d="M289.607076,93.9445333 L249,20" id="treeEdge" stroke="#808080" stroke-width="3.94370844" fill="#000000"></path>
            <path d="M289,93.9445333 L329.607076,20" id="treeEdge" stroke="#808080" stroke-width="3.94370844" fill="#000000"></path>
            <path d="M208.214151,167.944533 L127,94" id="treeEdge" stroke="#808080" stroke-width="3.94370844" fill="#000000"></path>
            <path d="M208,167.944533 L289.214151,94" id="treeEdge" stroke="#808080" stroke-width="3.94370844" fill="#000000"></path>
            <path d="M46.0414419,241.773388 L7,224" id="treeEdge" stroke="#808080" stroke-width="3.94370844" fill="#000000"></path>
            <path d="M46,241.944533 L208.428302,168" id="treeEdge" stroke="#808080" stroke-width="3.94370844" fill="#000000"></path>
            <circle id="treeItem" stroke="#000000" fill="#000000" cx="248.303538" cy="20.3035378" r="20.3035378"></circle>
            <circle id="treeItem" stroke="#000000" fill="#000000" cx="330.303538" cy="20.3035378" r="20.3035378"></circle>
            <circle id="treeItem" stroke="#000000" fill="#000000" cx="289.303538" cy="94.3035378" r="20.3035378"></circle>
            <circle id="treeItem" stroke="#000000" fill="#000000" cx="208.303538" cy="168.303538" r="20.3035378"></circle>
            <circle id="treeItem" stroke="#000000" fill="#000000" cx="45.3035378" cy="242.303538" r="20.3035378"></circle>
            <rect id="Rectangle" stroke="#000000" fill="#FFFFFF" x="261" y="47" width="16" height="16" rx="4"></rect>
            <text id="0" fill="#000000" font-family="Helvetica" font-size="12" font-weight="normal">
                <tspan x="266" y="59">0</tspan>
            </text>
            <rect id="Rectangle" stroke="#000000" fill="#FFFFFF" x="302" y="47" width="16" height="16" rx="4"></rect>
            <text id="1" fill="#000000" font-family="Helvetica" font-size="12" font-weight="normal">
                <tspan x="306" y="59">1</tspan>
            </text>
            <rect id="Rectangle" stroke="#000000" fill="#FFFFFF" x="159" y="121" width="16" height="16" rx="4"></rect>
            <text id="0" fill="#000000" font-family="Helvetica" font-size="12" font-weight="normal">
                <tspan x="164" y="133">0</tspan>
            </text>
            <rect id="Rectangle" stroke="#000000" fill="#FFFFFF" x="241" y="121" width="16" height="16" rx="4"></rect>
            <text id="1" fill="#000000" font-family="Helvetica" font-size="12" font-weight="normal">
                <tspan x="245" y="133">1</tspan>
            </text>
            <rect id="Rectangle" stroke="#000000" fill="#FFFFFF" x="119" y="195" width="16" height="16" rx="4"></rect>
            <text id="1" fill="#000000" font-family="Helvetica" font-size="12" font-weight="normal">
                <tspan x="123" y="207">1</tspan>
            </text>
            <polyline id="Line" stroke="#000000" stroke-width="3" stroke-linecap="square" points="9.76996262e-15 233 5.1861293e-14 228.555695 4 228.555695 4 224 8 224 8 220 12 220 12 216 16 216"></polyline>
            <g id="Group-4" transform="translate(106.000000, 71.000000)">
                <circle id="treeItem" stroke="#000000" stroke-width="4" fill="#FFFFFF" cx="20.5" cy="20.5" r="20.5"></circle>
                <g id="latex-eq" transform="translate(8.000000, 9.000000)" fill="#000000">
                    <g id="Group" transform="translate(12.500000, 11.500000) scale(-1, 1) rotate(-180.000000) translate(-12.500000, -11.500000) ">
                        <path d="M0.290248819,9.88365999 C0.369924965,10.3448975 0.677247243,10.8775169 1.21221565,11.4815184 C1.74718406,12.0855198 2.40735785,12.3930114 3.192737,12.4039933 C3.59111774,12.4039933 3.95535155,12.3051567 4.28543844,12.1074835 C4.61552533,11.9098103 4.86024492,11.6627188 5.01959722,11.366209 C5.49765409,12.0580652 6.07246058,12.4039933 6.74401667,12.4039933 C7.16516201,12.4039933 7.52939582,12.283193 7.8367181,12.0415924 C8.14404038,11.7999918 8.30339267,11.4760274 8.31477498,11.0696992 C8.31477498,10.7512257 8.23509883,10.4931524 8.07574654,10.2954792 C7.91639425,10.097806 7.76273311,9.97700567 7.61476312,9.93307829 C7.46679314,9.88915092 7.33589661,9.86718723 7.22207354,9.86718723 C7.00580972,9.86718723 6.82938397,9.92758737 6.69279629,10.0483877 C6.55620861,10.1691879 6.48791477,10.3284247 6.48791477,10.5260979 C6.48791477,11.0312627 6.77247243,11.3771908 7.34158776,11.5638822 C7.21638239,11.7066462 6.98873626,11.7780282 6.65864937,11.7780282 C6.51067938,11.7780282 6.40254747,11.7670463 6.33425363,11.7450826 C5.90172598,11.5693731 5.58302139,11.2069722 5.37813987,10.65788 C4.69520148,8.23089241 4.35373228,6.81423447 4.35373228,6.40790623 C4.35373228,6.10041459 4.44479073,5.8807777 4.62690764,5.74899556 C4.80902454,5.61721343 5.00821491,5.55132236 5.22447873,5.55132236 C5.64562408,5.55132236 6.06107827,5.7325228 6.47084131,6.09492366 C6.88060435,6.45732453 7.15947086,6.90208923 7.30744084,7.42921776 C7.34158776,7.53903621 7.37573468,7.59943635 7.4098816,7.6104182 C7.44402852,7.62140004 7.53508698,7.63238188 7.68305696,7.64336373 L7.7513508,7.64336373 C7.9220854,7.64336373 8.0074527,7.59943635 8.0074527,7.5115816 C8.0074527,7.50059975 7.99607039,7.44019961 7.97330578,7.33038116 C7.79118888,6.70441603 7.43833737,6.14983288 6.91475127,5.66663173 C6.39116516,5.18343057 5.78221176,4.94183 5.08789106,4.94183 C4.29112959,4.94183 3.68786734,5.2877581 3.2781043,5.9796143 C2.81142973,5.29873994 2.27646132,4.95830276 1.67319907,4.95830276 L1.57075831,4.95830276 C1.01302529,4.95830276 0.614644557,5.10106674 0.375616118,5.3865947 C0.136587679,5.67212265 0.0113823066,5.97412337 0,6.29259686 C0,6.64401588 0.108131913,6.92954384 0.324395738,7.14918073 C0.540659564,7.36881762 0.796761463,7.47863606 1.09270143,7.47863606 C1.58214062,7.47863606 1.82686021,7.24801733 1.82686021,6.78677986 C1.82686021,6.56714297 1.75856637,6.3749607 1.62197869,6.21023303 C1.48539101,6.04550536 1.35449449,5.93568692 1.22928911,5.8807777 C1.10408374,5.82586847 1.03009875,5.79841386 1.00733414,5.79841386 L0.956113755,5.7819411 C0.956113755,5.77095925 0.990260675,5.74899556 1.05855451,5.71605003 C1.12684835,5.6831045 1.21790681,5.64466804 1.33172987,5.60074066 C1.44555294,5.55681329 1.55368485,5.54034052 1.65612561,5.55132236 C2.06588865,5.55132236 2.41874015,5.79841386 2.71468013,6.29259686 C2.81712089,6.46830637 2.94801741,6.84168908 3.1073697,7.412745 C3.266722,7.98380091 3.42607429,8.57682051 3.58542658,9.19180379 C3.74477887,9.80678708 3.83583733,10.1691879 3.85860194,10.2790064 C3.91551347,10.5755162 3.94396924,10.7896622 3.94396924,10.9214443 C3.94396924,11.2289359 3.85860194,11.4485728 3.68786734,11.580355 C3.51713274,11.7121371 3.32363353,11.7780282 3.1073697,11.7780282 C2.65207744,11.7780282 2.22524094,11.6023186 1.82686021,11.2508996 C1.42847948,10.8994806 1.14961297,10.449225 0.990260675,9.90013276 C0.967496062,9.80129616 0.939040295,9.74638694 0.904893376,9.73540509 C0.870746456,9.72442325 0.779688003,9.7134414 0.631718017,9.70245956 L0.392689578,9.70245956 C0.324395738,9.76835063 0.290248819,9.82875077 0.290248819,9.88365999 Z" id="Path" stroke="#000000" stroke-width="0.5"></path>
                        <g transform="translate(10.295296, 10.789662)" id="Path" stroke="#000000" stroke-width="0.5">
                            <path d="M0.00781964464,5.8272412 C0.00781964464,6.36296852 0.0480560985,6.87152126 0.128529006,7.35289943 C0.209001914,7.8342776 0.301545758,8.24966038 0.406160538,8.59904776 C0.510775318,8.94843514 0.659650197,9.29005836 0.852785176,9.62391741 C1.04592015,9.95777646 1.19881868,10.217876 1.31148075,10.4042159 C1.42414282,10.5905558 1.59313593,10.7924241 1.81846007,11.0098207 C2.04378421,11.2272173 2.17656451,11.3592081 2.21680096,11.4057931 C2.25703742,11.452378 2.35762855,11.5339018 2.51857437,11.6503642 L2.67549654,11.6503642 L2.72378028,11.6503642 C2.83644235,11.6503642 2.89277339,11.6154255 2.89277339,11.545548 C2.89277339,11.5222555 2.82437142,11.4407318 2.68756747,11.3009768 C2.55076353,11.1612219 2.38579407,10.9554715 2.19265909,10.6837258 C1.99952411,10.4119801 1.80236549,10.078121 1.60118322,9.68214864 C1.40000095,9.28617627 1.23100784,8.75044896 1.0942039,8.07496669 C0.957399956,7.39948442 0.888997984,6.65024259 0.888997984,5.8272412 C0.888997984,5.00423982 0.957399956,4.25888007 1.0942039,3.59116197 C1.23100784,2.92344386 1.3959773,2.38383446 1.58911228,1.97233377 C1.78224726,1.56083308 1.97940588,1.22697402 2.18058815,0.970756612 C2.38177042,0.714539199 2.55076353,0.508788853 2.68756747,0.353505572 C2.82437142,0.198222292 2.89277339,0.11669857 2.89277339,0.108934406 C2.89277339,0.0390569297 2.83241871,0.00411819166 2.71170934,0.00411819166 L2.67549654,0.00411819166 L2.51857437,0.00411819166 L2.18058815,0.283628096 C1.42414282,0.943582038 0.872903403,1.76658342 0.5268699,2.75263225 C0.180836396,3.73868108 0.00781964464,4.76355073 0.00781964464,5.8272412 Z"></path>
                            <g transform="translate(4.165924, 2.915680)">
                                <path d="M0.718160944,4.99623955 C0.500884094,4.99623955 0.327867342,5.06611702 0.19911069,5.20587197 C0.0703540372,5.34562693 0.00597571097,5.51643853 0.00597571097,5.7183068 C0.00597571097,6.26956244 0.219228916,6.74705853 0.645735327,7.15079506 C1.07224174,7.55453159 1.60336293,7.75639985 2.2390989,7.75639985 C2.97140236,7.75639985 3.58299646,7.53900326 4.0738812,7.10421008 C4.56476593,6.66941689 4.81423195,6.106515 4.82227924,5.4155044 C4.82227924,5.08164535 4.74180633,4.76331462 4.58086052,4.46051223 C4.4199147,4.15770983 4.22677972,3.89372825 4.00145558,3.6685675 C3.77613144,3.44340674 3.45423981,3.15613267 3.03578069,2.80674529 C2.74607822,2.56605621 2.34371368,2.20890466 1.82868707,1.73529066 L1.11650184,1.08310088 L2.03389299,1.07145463 C3.29731764,1.07145463 3.96926642,1.09086504 4.04973932,1.12968586 C4.10607036,1.14521419 4.20263785,1.49071949 4.33944179,2.16620176 L4.33944179,2.2011405 L4.82227924,2.2011405 L4.82227924,2.16620176 C4.81423195,2.14290927 4.76192456,1.78963981 4.66535707,1.10639337 C4.56878958,0.423146939 4.5084349,0.0659953941 4.48429303,0.0349387381 L4.48429303,0 L0.00597571097,0 L0.00597571097,0.221278674 L0.00597571097,0.361033627 C0.00597571097,0.415382775 0.0301175833,0.473614005 0.0784013279,0.535727317 C0.126685073,0.597840629 0.247394434,0.7337135 0.440529413,0.943345928 C0.673900845,1.19179918 0.875083115,1.40919577 1.04407622,1.59553571 C1.11650184,1.67317735 1.25330578,1.81681438 1.45448805,2.02644681 C1.65567032,2.23607924 1.79247426,2.37971627 1.86489988,2.45735791 C1.9373255,2.53499955 2.05401121,2.66310826 2.21495703,2.84168403 C2.37590284,3.0202598 2.48856491,3.15225059 2.55294324,3.2376564 C2.61732157,3.3230622 2.70986541,3.43952466 2.83057477,3.58704378 C2.95128413,3.73456289 3.03578069,3.85878952 3.08406443,3.95972365 C3.13234818,4.06065778 3.19270286,4.17323816 3.26512847,4.29746478 C3.33755409,4.42169141 3.38986148,4.54591803 3.42205064,4.67014466 C3.45423981,4.79437128 3.48240533,4.91083374 3.5065472,5.01953204 C3.53068907,5.12823033 3.54276001,5.25633904 3.54276001,5.40385816 C3.54276001,5.89300049 3.40595606,6.31614743 3.13234818,6.67329897 C2.85874029,7.03045052 2.46844669,7.20902629 1.96146737,7.20902629 C1.69590677,7.20902629 1.46253534,7.1430309 1.26135307,7.01104011 C1.0601708,6.87904932 0.919343214,6.75094061 0.838870306,6.62671399 C0.758397398,6.50248736 0.718160944,6.42872781 0.718160944,6.40543531 C0.718160944,6.39767115 0.738279171,6.39378907 0.778515625,6.39378907 C0.923366859,6.39378907 1.07224174,6.33943992 1.22514026,6.23074162 C1.37803879,6.12204333 1.45448805,5.94346756 1.45448805,5.69501431 C1.45448805,5.50091021 1.39010972,5.33786276 1.26135307,5.20587197 C1.13259642,5.07388119 0.951532377,5.00400371 0.718160944,4.99623955 Z"></path>
                            </g>
                            <g transform="translate(10.244076, 0.000000)">
                                <path d="M0.0595978065,11.638718 L0.0977296158,11.6503642 C0.129506123,11.6503642 0.161282631,11.6503642 0.193059139,11.6503642 L0.307454567,11.6503642 L0.574377231,11.3708543 C1.17177558,10.7109004 1.60711373,9.88789899 1.8803917,8.90185016 C2.15366966,7.91580133 2.29030865,6.89093167 2.29030865,5.8272412 C2.29030865,5.29927805 2.25853214,4.79072531 2.19497912,4.30158298 C2.13142611,3.81244064 2.05834014,3.39705787 1.97572122,3.05543465 C1.8931023,2.71381143 1.77552922,2.37218822 1.62300199,2.030565 C1.47047475,1.68894178 1.34972402,1.42884229 1.2607498,1.25026652 C1.17177558,1.07169074 1.04149189,0.873704562 0.869898753,0.656307969 C0.698305611,0.438911377 0.596620787,0.31080267 0.564844279,0.27198185 C0.533067771,0.23316103 0.459981804,0.159401472 0.345586376,0.0507031758 C0.326520471,0.0274106837 0.313809868,0.0118823557 0.307454567,0.00411819166 L0.193059139,0.00411819166 C0.142216727,0.00411819166 0.107262568,0.00411819166 0.0881966635,0.00411819166 C0.0691307588,0.00411819166 0.053242505,0.0157644377 0.0405319019,0.0390569297 C0.0278212988,0.0623494218 0.0182883465,0.0972881599 0.011933045,0.143873144 C0.0182883465,0.151637308 0.053242505,0.202104374 0.11679552,0.295274342 C1.10186726,1.54530475 1.59440313,3.3892937 1.59440313,5.8272412 C1.59440313,8.26518871 1.10186726,10.1091777 0.11679552,11.3592081 C0.053242505,11.452378 0.0182883465,11.5028451 0.011933045,11.5106093 C0.011933045,11.5727226 0.0278212988,11.6154255 0.0595978065,11.638718 Z"></path>
                            </g>
                        </g>
                        <g transform="translate(9.407476, 0.000000)" fill-rule="nonzero" id="Shape">
                            <path d="M1.70060815,7.11952975 C1.70060815,7.30586969 1.7661629,7.46891713 1.89727238,7.60867208 C2.02838187,7.74842703 2.18019285,7.82218659 2.35270534,7.82995076 C2.47691432,7.82995076 2.58042181,7.78336577 2.6632278,7.6901958 C2.7460338,7.59702584 2.79088704,7.48056338 2.79778754,7.34080842 C2.79778754,7.16223265 2.72878255,6.99918521 2.59077256,6.85166609 C2.45276258,6.70414697 2.30095159,6.62650533 2.13533961,6.61874117 C2.03183212,6.61874117 1.93522513,6.65756199 1.84551864,6.73520363 C1.75581215,6.81284527 1.70750865,6.94095398 1.70060815,7.11952975 Z M0.0134360772,3.47425474 C0.0134360772,3.53636805 0.044488324,3.6567126 0.106592818,3.83528837 C0.168697311,4.01386414 0.251503303,4.21185032 0.355010792,4.42924692 C0.458518281,4.64664351 0.610329266,4.84462969 0.810443745,5.02320546 C1.01055822,5.20178124 1.2175732,5.28718704 1.43148868,5.27942288 C1.70060815,5.27942288 1.92487438,5.19013499 2.10428736,5.01155922 C2.28370034,4.83298345 2.37685708,4.59229436 2.38375758,4.28949196 C2.38375758,4.15750118 2.33545409,3.94010458 2.2388471,3.63730219 C2.14224011,3.33449979 2.00423012,2.92688118 1.82481714,2.41444635 C1.64540416,1.90201153 1.50049367,1.46333626 1.39008569,1.09842055 C1.35558319,0.927608945 1.33833194,0.803382321 1.33833194,0.725740681 C1.33833194,0.53163658 1.39698618,0.43458453 1.51429467,0.43458453 C1.57639917,0.43458453 1.64195391,0.446230776 1.7109589,0.469523268 C1.7799639,0.49281576 1.85931964,0.547164908 1.94902613,0.632570712 C2.03873262,0.717976517 2.13188936,0.853849387 2.22849635,1.04018932 C2.32510334,1.22652926 2.41135958,1.4555721 2.48726507,1.72731784 C2.50796657,1.82048781 2.52521782,1.87483696 2.53901882,1.89036528 C2.55281982,1.90589361 2.61147406,1.91365778 2.71498155,1.91365778 C2.85299153,1.91365778 2.92199653,1.87483696 2.92199653,1.79719531 C2.92199653,1.735082 2.89094428,1.61473746 2.82883979,1.43616169 C2.76673529,1.25758592 2.68047905,1.05959973 2.57007106,0.842203141 C2.45966308,0.624806548 2.30440184,0.430702448 2.10428736,0.25989084 C1.90417288,0.0890792312 1.6902574,0.00367342696 1.46254093,0.00367342696 C1.24172495,0.00367342696 1.03816022,0.0851971491 0.851846741,0.248244594 C0.66553326,0.411292038 0.56892627,0.659745286 0.562025771,0.993604339 C0.562025771,1.12559513 0.579277019,1.24982175 0.613779515,1.36628421 C0.648282012,1.48274667 0.796642747,1.92530402 1.05886172,2.69395626 C1.32108069,3.47813682 1.47289168,3.94786875 1.51429467,4.10315203 C1.55569767,4.25843531 1.57984942,4.40983651 1.58674992,4.55735562 C1.58674992,4.74369556 1.52809567,4.83686553 1.41078718,4.83686553 L1.39008569,4.83686553 C1.18307071,4.83686553 0.993306976,4.70875682 0.820794494,4.45253941 C0.648282012,4.196322 0.517172525,3.87022711 0.427466035,3.47425474 C0.420565535,3.46649058 0.413665036,3.45484433 0.406764537,3.439316 C0.399864037,3.42378768 0.396413788,3.41214143 0.396413788,3.40437727 C0.396413788,3.3966131 0.389513288,3.38884894 0.37571229,3.38108477 C0.361911291,3.37332061 0.351560542,3.36943853 0.344660043,3.36943853 C0.337759544,3.36943853 0.323958545,3.36943853 0.303257047,3.36943853 C0.28255555,3.36943853 0.254953552,3.36943853 0.220451056,3.36943853 L0.0755405708,3.36943853 C0.0341375751,3.41602351 0.0134360772,3.45096225 0.0134360772,3.47425474 Z"></path>
                        </g>
                    </g>
                </g>
            </g>
        </g>
        <path id="Line-2" d="M437,150.5 L361.607076,150.5 L360.107076,150.5 L360.107076,147.5 L361.607076,147.5 L437,147.5 L437,139.5 L456,149 L437,158.5 L437,150.5 Z" fill="#000000" fill-rule="nonzero"></path>
    </g>
</svg>